<svg width="256" height="256" viewBox="0 0 256 256" fill="none" xmlns="http://www.w3.org/2000/svg">
  <defs>
    <radialGradient id="bg1" cx="0" cy="0" r="1" gradientUnits="userSpaceOnUse" gradientTransform="translate(128 128) rotate(90) scale(112)">
      <stop stop-color="#2C2A13"/>
      <stop offset="1" stop-color="#121219"/>
    </radialGradient>
    <linearGradient id="gun1" x1="58" y1="104" x2="202" y2="104" gradientUnits="userSpaceOnUse">
      <stop stop-color="#FFE58A"/>
      <stop offset="1" stop-color="#F8B12D"/>
    </linearGradient>
    <linearGradient id="down1" x1="128" y1="140" x2="128" y2="220" gradientUnits="userSpaceOnUse">
      <stop stop-color="#FFF2AE"/>
      <stop offset="1" stop-color="#F2A90B"/>
    </linearGradient>
    <filter id="glow1" x="0" y="0" width="256" height="256" filterUnits="userSpaceOnUse" color-interpolation-filters="sRGB">
      <feGaussianBlur stdDeviation="8" result="blur"/>
      <feBlend in="SourceGraphic" in2="blur" mode="screen"/>
    </filter>
  </defs>

  <circle cx="128" cy="128" r="114" fill="url(#bg1)" stroke="#F7CA57" stroke-width="8"/>
  <g filter="url(#glow1)">
    <path d="M52 96H174C185 96 194 105 194 116C194 127 185 136 174 136H120L100 158H82L95 136H52C41 136 32 127 32 116C32 105 41 96 52 96Z" fill="url(#gun1)"/>
    <rect x="168" y="84" width="56" height="16" rx="8" fill="#EAA42A"/>
    <circle cx="72" cy="116" r="9" fill="#33280D"/>

    <path d="M128 142L166 186H142V216H114V186H90L128 142Z" fill="url(#down1)"/>
    <path d="M128 148L158 182H138V210H118V182H98L128 148Z" fill="#FFF8D1" fill-opacity="0.35"/>
  </g>
</svg>
